<?xml version="1.0" encoding="utf-8"?>
<!-- Generator: Adobe Illustrator 25.1.0, SVG Export Plug-In . SVG Version: 6.00 Build 0)  -->
<svg version="1.1" id="Calque_1" xmlns="http://www.w3.org/2000/svg" xmlns:xlink="http://www.w3.org/1999/xlink" x="0px" y="0px"
	 viewBox="0 0 291 299" style="enable-background:new 0 0 291 299;" xml:space="preserve">
<style type="text/css">
	.st0{fill:#D6D6D6;}
	.st1{fill:#FFB90B;}
</style>
<ellipse class="st0" cx="148.3" cy="263" rx="121.7" ry="13.9"/>
<path class="st1" d="M146.4,122.7c25.8,0,46.7-20.9,46.7-46.7s-20.9-46.7-46.7-46.7S99.7,50.2,99.7,76S120.6,122.7,146.4,122.7z
	 M168.2,127h-39.5c-33,0-59.8,26.8-59.8,59.8v47.5l0.1,0.8l3.3,1c31.4,9.7,58.7,13,81.2,13c43.9,0,69.3-12.4,70.9-13.2l3.1-1.6h0.3
	v-48C227.9,153.6,201.1,127,168.2,127z"/>
</svg>
