<?xml version="1.0" encoding="utf-8"?>
<!-- Generator: Adobe Illustrator 25.1.0, SVG Export Plug-In . SVG Version: 6.00 Build 0)  -->
<svg version="1.1" id="Calque_1" xmlns="http://www.w3.org/2000/svg" xmlns:xlink="http://www.w3.org/1999/xlink" x="0px" y="0px"
	 viewBox="0 0 320.7 260.2" style="enable-background:new 0 0 320.7 260.2;" xml:space="preserve">
<style type="text/css">
	.st0{fill:#D6D6D6;}
	.st1{fill:#FFB90B;}
	.st2{fill:#FFFFFF;}
	.st3{fill:none;stroke:#FFFFFF;stroke-width:7;stroke-linecap:round;stroke-miterlimit:10;}
</style>
<ellipse class="st0" cx="144.3" cy="236.1" rx="124.5" ry="8.5"/>
<g>
	<path class="st1" d="M83.4,230.1c-6.5,0-12.4-4.1-14.6-10.3L30.6,114.7c-2.9-8.1,1.2-17,9.3-20l200-72.7c1.7-0.6,3.5-0.9,5.3-0.9
		c6.5,0,12.4,4.1,14.6,10.3L298,136.5c2.9,8.1-1.2,17-9.3,20l-200,72.7C87,229.8,85.2,230.1,83.4,230.1z"/>
	<path class="st1" d="M245.3,15.6v11c4.2,0,8,2.7,9.5,6.6L293,138.3c0.9,2.5,0.8,5.3-0.3,7.7c-1.1,2.4-3.2,4.3-5.7,5.2L86.9,224
		c-1.1,0.4-2.3,0.6-3.4,0.6c-4.2,0-8-2.7-9.5-6.6L35.7,112.8c-0.9-2.5-0.8-5.3,0.3-7.7c1.1-2.4,3.2-4.3,5.7-5.2l200.1-72.7
		c1.1-0.4,2.3-0.6,3.4-0.6L245.3,15.6 M245.3,15.6c-2.4,0-4.8,0.4-7.2,1.3L38,89.6c-10.9,4-16.6,16.1-12.6,27l38.2,105.1
		c3.1,8.6,11.2,13.9,19.8,13.9c2.4,0,4.8-0.4,7.2-1.3l200.1-72.7c10.9-4,16.6-16.1,12.6-27L265.1,29.5
		C262,20.9,253.9,15.6,245.3,15.6L245.3,15.6z"/>
</g>
<path class="st2" d="M113.7,95.4c-2,0-4-1.3-4.7-3.3c-0.9-2.6,0.4-5.5,3-6.4l71.4-26c2.6-0.9,5.5,0.4,6.4,3s-0.4,5.5-3,6.4l-71.4,26
	C114.8,95.3,114.2,95.4,113.7,95.4z"/>
<g>
	<line class="st3" x1="63.5" y1="145.2" x2="134.9" y2="119.3"/>
</g>
<g>
	<line class="st3" x1="71" y1="164.3" x2="142.4" y2="138.4"/>
</g>
<g>
	<line class="st3" x1="187.5" y1="100.1" x2="259" y2="74.2"/>
</g>
<g>
	<line class="st3" x1="195" y1="119.2" x2="266.4" y2="93.3"/>
</g>
<g>
	<line class="st3" x1="78.1" y1="184.1" x2="208.8" y2="136.6"/>
</g>
<g>
	<line class="st3" x1="85.3" y1="203.8" x2="215.9" y2="156.3"/>
</g>
</svg>
