<?xml version="1.0" encoding="utf-8"?>
<!-- Generator: Adobe Illustrator 25.1.0, SVG Export Plug-In . SVG Version: 6.00 Build 0)  -->
<svg version="1.1" id="Layer_1" xmlns="http://www.w3.org/2000/svg" xmlns:xlink="http://www.w3.org/1999/xlink" x="0px" y="0px"
	 viewBox="0 0 35 35" style="enable-background:new 0 0 35 35;" xml:space="preserve">
<style type="text/css">
	.st0{display:none;}
	.st1{display:inline;fill:#162438;}
	.st2{fill:#FFB90B;}
</style>
<g id="Background" class="st0">
	<rect x="-140" y="-245" class="st1" width="2494" height="1500"/>
</g>
<g id="Layer_4">
</g>
<path class="st2" d="M21,17.5l10-10c1-1,1-2.6,0-3.5c-1-1-2.6-1-3.5,0l-10,10L7.7,4.2c-1-1-2.6-1-3.5,0c-1,1-1,2.6,0,3.5l9.8,9.8
	l-10,10c-1,1-1,2.6,0,3.5c0.5,0.5,1.1,0.7,1.8,0.7s1.3-0.2,1.8-0.7l10-10l9.8,9.8c0.5,0.5,1.1,0.7,1.8,0.7c0.6,0,1.3-0.2,1.8-0.7
	c1-1,1-2.6,0-3.5L21,17.5z"/>
<g id="TITLE">
</g>
</svg>
