<?xml version="1.0" encoding="utf-8"?>
<!-- Generator: Adobe Illustrator 24.0.1, SVG Export Plug-In . SVG Version: 6.00 Build 0)  -->
<svg version="1.1" id="Capa_1" xmlns="http://www.w3.org/2000/svg" xmlns:xlink="http://www.w3.org/1999/xlink" x="0px" y="0px"
	 width="100px" height="100px" viewBox="0 0 100 100" enable-background="new 0 0 100 100" xml:space="preserve">
<path fill="#FFFFFF" d="M93.3,81.1L68.4,56.2c3.3-5.4,5.3-11.7,5.3-18.4c0-19.4-15.8-35.2-35.2-35.2S3.3,18.3,3.3,37.8
	S19.1,73,38.5,73c6,0,11.6-1.5,16.6-4.2l25.3,25.3c1.8,1.8,4.2,2.7,6.5,2.7s4.7-0.9,6.5-2.7C96.9,90.5,96.9,84.7,93.3,81.1z
	 M16.4,37.8c0-12.2,9.9-22.1,22.1-22.1s22.1,9.9,22.1,22.1s-9.9,22.1-22.1,22.1S16.4,49.9,16.4,37.8z"/>
</svg>
