<?xml version="1.0" encoding="utf-8"?>
<!-- Generator: Adobe Illustrator 25.1.0, SVG Export Plug-In . SVG Version: 6.00 Build 0)  -->
<svg version="1.1" id="Calque_1" xmlns="http://www.w3.org/2000/svg" xmlns:xlink="http://www.w3.org/1999/xlink" x="0px" y="0px"
	 viewBox="0 0 566.9 197.6" style="enable-background:new 0 0 566.9 197.6;" xml:space="preserve">
<style type="text/css">
	.st0{fill:#5D5E60;}
	.st1{fill:#FFB90B;}
</style>
<path class="st0" d="M75.3,83.8H59v-7.3h40.7v7.3H83.4v44h-8.1V83.8z"/>
<path class="st0" d="M129.6,116.9h-20.7l-4.5,10.9h-8.1l22.4-53h1.1l22.4,53h-8.1L129.6,116.9z M119,91.4l-7.6,18.2h14.9L119,91.4z"
	/>
<path class="st0" d="M143.9,102.1c0-16,10.4-26.4,25.8-26.4c7,0,13.2,2.2,17.7,5.9L184,88c-3.6-3.1-8.4-5-14-5
	c-10.7,0-17.4,7.6-17.4,19.1s6.7,19.1,17.4,19.1c5.3,0,10.1-2,14-5l3.1,6.7c-4.5,3.6-10.4,5.6-17.7,5.6
	C154.3,128.7,143.9,118,143.9,102.1z"/>
<path class="st0" d="M197.2,76.5h8.1v21.6h24.4V76.5h8.1v51.3h-8.1v-22.7h-24.4v22.7h-8.1V76.5z"/>
<path class="st0" d="M270.1,107.7v20.2h-8.4v-20.2l-16.8-31.1h9.5l11.5,23.5L278,76.5h9.3L270.1,107.7z"/>
<path class="st1" d="M289.4,102.1c0-16,10.4-26.4,25.8-26.4c7,0,13.2,2.2,17.7,5.9l-3.4,6.4c-3.6-3.1-8.4-5-14-5
	c-10.7,0-17.4,7.6-17.4,19.1s6.7,19.1,17.4,19.1c5.3,0,10.1-2,14-5l3.1,6.7c-4.5,3.6-10.4,5.6-17.7,5.6
	C299.8,128.7,289.4,118,289.4,102.1z"/>
<path class="st1" d="M371,116.9h-20.7l-4.5,10.9h-8.1l22.4-53h1.1l22.4,53h-8.1L371,116.9z M360.7,91.4l-7.6,18.2h14.9L360.7,91.4z"
	/>
<path class="st1" d="M419.8,127.8l-10.4-17.1h-1.1h-9.5v17.1h-8.1V76.5H408c10.1,0,17.1,6.7,17.1,17.1c0,7-3.1,12.3-8.4,15.1
	l12.3,19.1H419.8z M406.4,103.5c6.7,0,10.7-3.6,10.7-9.8s-3.9-9.8-10.9-9.8h-7.3v19.6H406.4z"/>
<path class="st1" d="M480.6,102.1c0,15.7-10.1,25.8-25.2,25.8h-19.3V76.5h19.3C470.6,76.5,480.6,86.6,480.6,102.1z M472,102.1
	c0-11.5-7-19.1-16.8-19.1h-11.2v37.8h11.2C464.9,121.1,472,113.5,472,102.1z"/>
<path class="st1" d="M487.7,159C487.4,159,487.4,159,487.7,159l-55.2-0.3v-4.8l54.9,0.3c3.9,0,7.3-1.4,10.1-4.2
	c2.8-2.8,4.2-6.2,4.2-10.1l0.6-93.4c0-7.8-6.4-14.3-14.3-14.3l-180.5-1.1l0,0c-7.8,0-14.3,6.4-14.3,14.3V69h-4.8V45.4
	c0-10.4,8.7-19.1,19.1-19.1l0,0l180.5,1.1c10.4,0,19.1,8.7,19.1,19.1l-0.6,93.4c0,5-2,9.8-5.6,13.5C497.5,157,492.7,159,487.7,159z"
	/>
<g>
	<g>
		<path class="st1" d="M82,146.6l-5,17.4h-0.6l-5.3-14.6l-5.6,14.3h-0.6l-5-17.4h2l3.6,13.7l5.3-14h0.3l5.3,14l3.6-13.5
			C80,146.6,82,146.6,82,146.6z"/>
		<path class="st1" d="M105,153.6v10.1h-1.7v-9.8c0-4.2-1.7-6.2-4.5-6.2c-1.7,0-3.6,0.8-5.3,2.5v13.5h-1.7v-30h1.7v14.9
			c2-1.7,3.9-2.5,5.9-2.5C102.7,146.3,105,148.9,105,153.6z"/>
		<path class="st1" d="M128.8,153.6v10.1h-1.7v-2c-1.7,1.4-3.9,2.2-5.9,2.2c-3.9,0-6.4-2.2-6.4-5.3c0-3.1,2.5-5.3,6.4-5.3
			c1.7,0,3.6,0.3,5.9,1.1v-0.8c0-4.2-1.7-5.9-4.5-6.2c-2,0-3.9,0.6-5.6,2l-0.6-1.1c1.7-1.4,4.2-2.2,6.7-2.2
			C126.6,146.3,128.8,148.9,128.8,153.6z M127.1,160.4v-4.5c-2.2-0.8-3.9-1.1-5.6-1.1c-3.1,0-5,1.4-5,3.9c0,2.2,2,3.9,5,3.9
			C123.5,162.3,125.4,161.8,127.1,160.4z"/>
		<path class="st1" d="M148.7,163.2c-0.8,0.3-1.7,0.6-2.5,0.6c-3.6,0-5.9-2.5-5.9-7.3V148h-3.1v-0.8l3.1-0.3v-5l1.7-0.6v5.3l6.4-0.3
			v1.4H142v8.1c0,4.2,1.7,6.2,4.5,6.2c0.6,0,1.4,0,2-0.3L148.7,163.2z"/>
		<path class="st1" d="M157.4,143.5l3.9-7l1.7,0.8l-4.5,6.7L157.4,143.5z"/>
		<path class="st1" d="M170.3,162.3l0.6-1.4c1.4,0.8,3.1,1.4,4.8,1.4c2.2,0,3.6-1.1,3.6-2.8c0-2.2-1.7-3.1-3.6-3.9
			c-2.2-0.8-4.5-2.2-4.5-5c0-3.1,2.5-4.2,5.3-4.2c1.7,0,3.1,0.3,4.2,0.8l-0.6,1.4c-1.1-0.6-2.5-0.8-3.6-0.8c-2.2,0-3.4,0.8-3.4,2.8
			c0,2.2,1.7,3.1,3.6,3.9c2,0.8,4.5,2,4.5,5c0,3.4-2.5,4.5-5.3,4.5C173.7,163.7,171.7,163.2,170.3,162.3z"/>
		<path class="st1" d="M205.6,141.3c0-0.8,0.6-1.7,1.7-1.7c0.8,0,1.7,0.8,1.7,1.7s-0.6,1.4-1.7,1.4
			C206.2,143,205.6,142.1,205.6,141.3z M206.2,146.6h1.7v17.1h-1.7V146.6z"/>
		<path class="st1" d="M233.4,153.6v10.1h-1.7v-9.8c0-4.2-1.7-6.2-4.5-6.2c-1.7,0-3.6,0.8-5.3,2.5v13.5h-1.7v-17.1h1.7v2.2
			c2-1.7,3.9-2.5,5.9-2.5C231.1,146.3,233.4,148.9,233.4,153.6z"/>
		<path class="st1" d="M284.7,153.6v10.1H283v-9.8c0-4.2-1.7-6.2-4.5-6.2c-2,0-4.2,1.4-5.9,2.8c0.3,0.8,0.3,2,0.3,3.1v10.1h-1.7
			v-9.8c0-4.2-1.7-6.2-4.5-6.2c-1.7,0-3.6,0.8-5.3,2.5v13.5h-1.7v-17.1h1.7v2.2c2-1.7,3.9-2.5,5.9-2.5c2.5,0,4.2,1.1,5,3.1
			c2-1.7,4.2-3.1,6.7-3.1C282.4,146.3,284.7,148.9,284.7,153.6z"/>
		<path class="st1" d="M300.4,162.3l-7.3-15.7h2l6.2,13.7l6.2-13.7h2l-11.8,25.8h-2L300.4,162.3z"/>
		<path class="st1" d="M348.6,155c0,5.3-3.4,9-8.4,9c-2,0-4.2-0.8-5.6-2v1.7h-1.7v-30h1.7V148c1.7-1.1,3.6-2,5.6-2
			C345.2,146.3,348.6,149.7,348.6,155z M346.9,155c0-4.5-2.5-7.3-6.7-7.3c-2,0-4.2,0.8-5.6,2.2v9.8c1.4,1.4,3.6,2.5,5.6,2.5
			C344.1,162.3,346.9,159.5,346.9,155z"/>
		<path class="st1" d="M357.6,155c0-5.3,3.4-8.7,8.4-8.7c5,0,8.4,3.4,8.4,8.7c0,5.3-3.4,9-8.4,9C360.9,163.7,357.6,160.4,357.6,155z
			 M372.7,155c0-4.5-2.8-7.3-6.7-7.3c-3.9,0-6.7,2.8-6.7,7.3c0,4.5,2.8,7.3,6.7,7.3C369.9,162.3,372.7,159.5,372.7,155z"/>
		<path class="st1" d="M399.1,133.7v29.7h-1.7v-1.7c-1.4,1.1-3.4,2-5.6,2c-5,0-8.4-3.4-8.4-9c0-5.3,3.4-8.7,8.4-8.7
			c2,0,3.9,0.8,5.6,2v-14.3H399.1z M397.1,160.1V150c-1.4-1.4-3.4-2.2-5.6-2.2c-3.9,0-6.7,2.8-6.7,7.3s2.8,7.3,6.7,7.3
			C393.7,162.3,395.7,161.5,397.1,160.1z"/>
		<path class="st1" d="M415.6,162.3l-7.3-15.7h2l6.2,13.7l6.2-13.7h2l-11.8,25.8h-2L415.6,162.3z"/>
	</g>
</g>
</svg>
