<?xml version="1.0" encoding="utf-8"?>
<!-- Generator: Adobe Illustrator 25.1.0, SVG Export Plug-In . SVG Version: 6.00 Build 0)  -->
<svg version="1.1" id="Calque_1" xmlns="http://www.w3.org/2000/svg" xmlns:xlink="http://www.w3.org/1999/xlink" x="0px" y="0px"
	 viewBox="0 0 444 345" style="enable-background:new 0 0 444 345;" xml:space="preserve">
<style type="text/css">
	.st0{fill:#D6D6D6;}
	.st1{fill:#FFB90B;}
</style>
<ellipse class="st0" cx="222.4" cy="302.3" rx="203.6" ry="13.9"/>
<g>
	<g>
		<g>
			<path class="st1" d="M85,108.6c-5.8,8.2-7.8,17.2-6.2,27l23,132.6c1.7,9.8,6.7,17.6,14.9,23.4s17.2,7.8,27,6.2l5.1-0.9l-35.3-204
				l-5.1,0.9C98.5,95.4,90.8,100.4,85,108.6z"/>
			<path class="st1" d="M272.1,38.7c-0.7-4.3-2.9-7.7-6.4-10.2s-7.4-3.4-11.6-2.6l-91.8,15.9c-4.2,0.7-7.6,2.9-10.1,6.4
				s-3.3,7.4-2.6,11.8l4.5,25.8l-25.7,4.5l35.3,204l173.8-30.1l-35.3-204l-25.7,4.5L272.1,38.7L272.1,38.7z M170.8,61.6l81.6-14.1
				l3.6,20.7l-81.6,14.1L170.8,61.6z M297.4,181.5c-0.3,1.6-0.5,2.9-1.3,4s-3.5,1.8-3.5,1.8l-35.7,6.2l6.3,36.2c0.3,1.5,0,2.8-0.8,4
				c-0.8,1.1-2,1.8-3.5,2.1l-30.5,5.3c-1.5,0.3-2.8,0-3.9-0.8c-1.1-0.8-1.8-1.9-2.1-3.4l-6.2-35.7l-35.7,6.2c-1.5,0.3-2.8,0-3.9-0.8
				c-1.1-0.8-1.8-1.9-2.1-3.4l-5.4-31.2c-0.3-1.5,0-2.8,0.8-3.9c0.8-1.1,1.9-1.8,3.4-2.1l35.7-6.2l-6.2-35.7c-0.3-1.5,0-2.8,0.8-3.9
				s1.9-1.8,3.4-2.1l30.6-5.3c1.5-0.3,2.8,0,3.9,0.8c1.1,0.8,1.8,1.9,2.1,3.4l6.2,35.7l35.7-6.2c1.5-0.3,2.8,0,3.9,0.8
				s1.8,1.9,2.1,3.4l5.3,30.7l0.6-0.1V181.5z"/>
			<path class="st1" d="M349.5,62.8c-8.2-5.8-17.2-7.9-27-6.2l-5.1,0.9l35.3,204l5.1-0.9c9.8-1.7,17.6-6.7,23.4-14.9
				s7.8-17.2,6.2-27l-23-132.6C362.7,76.4,357.7,68.6,349.5,62.8z"/>
		</g>
	</g>
</g>
</svg>
