<?xml version="1.0" encoding="utf-8"?>
<!-- Generator: Adobe Illustrator 25.1.0, SVG Export Plug-In . SVG Version: 6.00 Build 0)  -->
<svg version="1.1" id="Calque_1" xmlns="http://www.w3.org/2000/svg" xmlns:xlink="http://www.w3.org/1999/xlink" x="0px" y="0px"
	 viewBox="0 0 100 100" style="enable-background:new 0 0 100 100;" xml:space="preserve">
<style type="text/css">
	.st0{fill:#FFB90B;}
</style>
<path class="st0" d="M34.9,40.2h-23c-4.9,0-8.8-4-8.8-8.8v-9.5C3,17,7,13,11.9,13H35c4.9,0,8.8,4,8.8,8.8v9.5
	C43.8,36.2,39.8,40.2,34.9,40.2z"/>
<path class="st0" d="M88.1,40.2h-23c-4.9,0-8.8-4-8.8-8.8v-9.5c0-4.9,4-8.8,8.8-8.8h23.1c4.9,0,8.8,4,8.8,8.8v9.5
	C97,36.2,93,40.2,88.1,40.2z"/>
<path class="st0" d="M34.9,86.2h-23c-4.9,0-8.8-4-8.8-8.8v-9.5c0-4.9,4-8.8,8.8-8.8H35c4.9,0,8.8,4,8.8,8.8v9.5
	C43.8,82.3,39.8,86.2,34.9,86.2z"/>
<path class="st0" d="M88.1,86.2h-23c-4.9,0-8.8-4-8.8-8.8v-9.5c0-4.9,4-8.8,8.8-8.8h23.1c4.9,0,8.8,4,8.8,8.8v9.5
	C97,82.3,93,86.2,88.1,86.2z"/>
</svg>
