<?xml version="1.0" encoding="utf-8"?>
<!-- Generator: Adobe Illustrator 25.1.0, SVG Export Plug-In . SVG Version: 6.00 Build 0)  -->
<svg version="1.1" id="Calque_1" xmlns="http://www.w3.org/2000/svg" xmlns:xlink="http://www.w3.org/1999/xlink" x="0px" y="0px"
	 viewBox="0 0 100 100" style="enable-background:new 0 0 100 100;" xml:space="preserve">
<style type="text/css">
	.st0{fill:#D6D6D6;}
	.st1{fill:#FFB90B;}
	.st2{fill:#FFFFFF;stroke:#000000;stroke-miterlimit:10;}
</style>
<ellipse class="st0" cx="49.6" cy="92.3" rx="41.4" ry="4.7"/>
<path class="st1" d="M50,91c-20.8,0-37.8-17-37.8-37.8c0-15.2,9.1-28.9,23.1-34.8c2.5-1.1,5.5,0.1,6.6,2.7c1.1,2.5-0.1,5.5-2.7,6.6
	c-10.3,4.4-17,14.4-17,25.6C22.2,68.6,34.7,81,50,81s27.8-12.5,27.8-27.8c0-11.2-6.7-21.3-17-25.6c-2.5-1.1-3.7-4-2.7-6.5
	c1.1-2.5,4-3.7,6.5-2.7C78.7,24.3,87.8,38,87.8,53.2C87.8,74.1,70.8,91,50,91z"/>
<path class="st2" d="M65.1,14"/>
<path class="st2" d="M34.8,14.1"/>
<path class="st1" d="M49.5,47.5c-2.8,0-5-2.2-5-5v-32c0-2.8,2.2-5,5-5s5,2.2,5,5v32C54.5,45.3,52.3,47.5,49.5,47.5z"/>
</svg>
