<?xml version="1.0" encoding="utf-8"?>
<!-- Generator: Adobe Illustrator 25.1.0, SVG Export Plug-In . SVG Version: 6.00 Build 0)  -->
<svg version="1.1" id="Calque_1" xmlns="http://www.w3.org/2000/svg" xmlns:xlink="http://www.w3.org/1999/xlink" x="0px" y="0px"
	 viewBox="0 0 277 255" style="enable-background:new 0 0 277 255;" xml:space="preserve">
<style type="text/css">
	.st0{fill:#D6D6D6;}
	.st1{fill:#FFB90B;}
</style>
<ellipse class="st0" cx="143.8" cy="230.2" rx="124.5" ry="8.5"/>
<path class="st1" d="M148.8,147l-5.9-13.2c5.7-4.2,10.5-9.3,14.3-15.2l13.5,5.1c2.6,1,5.5-0.3,6.4-2.9l5-13.1
	c0.5-1.2,0.4-2.6-0.1-3.8s-1.5-2.2-2.8-2.6l-13.5-5.1c1.1-6.9,0.8-14-0.6-20.9l13.2-5.9c1.2-0.5,2.2-1.5,2.6-2.8
	c0.5-1.2,0.4-2.6-0.1-3.8L175,50c-1.1-2.5-4.1-3.6-6.6-2.5l-13.2,5.9c-4.2-5.7-9.3-10.5-15.2-14.3l5.1-13.5c1-2.6-0.3-5.5-2.9-6.4
	l-13.1-5c-1.2-0.5-2.6-0.4-3.8,0.1c-1.2,0.5-2.2,1.5-2.6,2.8l-5.1,13.5c-6.9-1.1-14-0.8-20.9,0.6L90.8,18c-0.5-1.2-1.5-2.2-2.8-2.6
	c-1.2-0.5-2.6-0.4-3.8,0.1l-12.8,5.8c-2.5,1.1-3.6,4.1-2.5,6.6l5.9,13.2c-5.7,4.2-10.5,9.3-14.3,15.2L47,51.2
	c-1.2-0.5-2.6-0.4-3.8,0.1s-2.2,1.5-2.6,2.8l-5,13.1c-1,2.6,0.3,5.5,2.9,6.4L52,78.7c-1.1,6.9-0.8,14,0.6,20.9l-13.2,5.9
	c-1.2,0.5-2.2,1.5-2.6,2.8c-0.5,1.2-0.4,2.6,0.1,3.8l5.8,12.8c0.5,1.2,1.5,2.2,2.8,2.6c1.2,0.5,2.6,0.4,3.8-0.1l13.2-5.9
	c4.2,5.7,9.3,10.5,15.2,14.3l-5.1,13.5c-1,2.6,0.3,5.5,2.9,6.4l13.1,5c0.6,0.2,1.2,0.3,1.8,0.3c0.7,0,1.4-0.1,2.1-0.4
	c1.2-0.5,2.2-1.5,2.6-2.8l5.1-13.5c6.9,1.1,14,0.8,20.9-0.6l5.9,13.2c0.5,1.2,1.5,2.2,2.8,2.6c1.2,0.5,2.6,0.4,3.8-0.1l12.8-5.8
	C148.9,152.5,150,149.5,148.8,147z M140.6,99.5c-5,13.1-17.7,21.9-31.7,21.9c-4.1,0-8.1-0.7-12-2.2c-8.5-3.2-15.2-9.5-18.9-17.8
	c-3.7-8.3-4-17.5-0.8-25.9c5-13.1,17.7-21.9,31.7-21.9c4.1,0,8.1,0.7,12,2.2c8.5,3.2,15.2,9.5,18.9,17.8
	C143.5,81.8,143.8,91,140.6,99.5z M251.7,167.7c-0.9-1-2.1-1.6-3.5-1.6l-9.4-0.4c-0.9-4.4-2.4-8.7-4.6-12.7l6.9-6.4
	c2-1.9,2.2-5,0.3-7.1l-6.9-7.5c-0.9-1-2.1-1.6-3.5-1.6c-1.3,0-2.6,0.4-3.6,1.3l-6.9,6.4c-3.8-2.5-7.9-4.5-12.3-5.7l0.4-9.4
	c0.1-2.8-2-5.1-4.8-5.2l-10.2-0.4c-2.7-0.1-5.1,2-5.2,4.8l-0.4,9.4c-4.4,0.9-8.7,2.4-12.7,4.6l-6.4-6.9c-0.9-1-2.1-1.6-3.5-1.6
	c-1.3-0.1-2.6,0.4-3.6,1.3l-7.5,6.9c-2,1.9-2.2,5-0.3,7.1l6.4,6.9c-2.5,3.8-4.5,7.9-5.7,12.3l-9.4-0.4c-2.7-0.1-5.1,2-5.2,4.8
	l-0.4,10.2c-0.1,1.3,0.4,2.6,1.3,3.6c0.9,1,2.1,1.6,3.5,1.6l9.4,0.4c0.9,4.4,2.4,8.7,4.6,12.7l-6.9,6.4c-1,0.9-1.6,2.1-1.6,3.5
	c-0.1,1.3,0.4,2.6,1.3,3.6l6.9,7.5c0.9,1,2.1,1.6,3.5,1.6c1.3,0.1,2.6-0.4,3.6-1.3l6.9-6.4c3.8,2.5,7.9,4.5,12.3,5.7l-0.4,9.4
	c-0.1,2.8,2,5.1,4.8,5.2l10.2,0.4c0.1,0,0.1,0,0.2,0c1.2,0,2.5-0.5,3.4-1.3c1-0.9,1.6-2.1,1.6-3.5l0.4-9.4c4.4-0.9,8.7-2.4,12.7-4.6
	l6.4,6.9c0.9,1,2.1,1.6,3.5,1.6c1.3,0.1,2.6-0.4,3.6-1.3l7.5-6.9c2-1.9,2.2-5,0.3-7.1l-6.4-6.9c2.5-3.8,4.5-7.9,5.7-12.3l9.4,0.4
	c2.8,0.1,5.1-2,5.2-4.8l0.4-10.2C253.1,170,252.6,168.7,251.7,167.7z M195.4,197.3c-12.8-0.6-22.8-11.4-22.3-24.3
	c0.5-12.5,10.8-22.3,23.3-22.3c0.3,0,0.7,0,1,0c12.8,0.6,22.8,11.4,22.3,24.3C219.1,187.9,208.3,197.9,195.4,197.3z"/>
</svg>
