<?xml version="1.0" encoding="utf-8"?>
<!-- Generator: Adobe Illustrator 25.1.0, SVG Export Plug-In . SVG Version: 6.00 Build 0)  -->
<svg version="1.1" id="Calque_1" xmlns="http://www.w3.org/2000/svg" xmlns:xlink="http://www.w3.org/1999/xlink" x="0px" y="0px"
	 viewBox="0 0 452 368" style="enable-background:new 0 0 452 368;" xml:space="preserve">
<style type="text/css">
	.st0{fill:#D6D6D6;}
	.st1{fill:#FFB90B;}
</style>
<ellipse class="st0" cx="225.3" cy="322" rx="203.6" ry="13.9"/>
<g>
	<g>
		<path class="st1" d="M263.6,93c14.7,9.2,25.1,24.9,26.9,43c6,2.8,12.7,4.4,19.7,4.4c25.8,0,46.7-20.9,46.7-46.7S336,47,310.2,47
			C284.7,47,264,67.5,263.6,93z M233,188.6c25.8,0,46.7-20.9,46.7-46.7S258.8,95.2,233,95.2s-46.7,20.9-46.7,46.7
			S207.2,188.6,233,188.6z M254.8,192.9h-39.5c-33,0-59.8,26.8-59.8,59.8v47.5l0.1,0.8l3.3,1c31.4,9.7,58.7,13,81.2,13
			c43.9,0,69.3-12.4,70.9-13.2l3.1-1.6h0.3v-48C314.5,219.5,287.7,192.9,254.8,192.9z M330.2,145.2h-41.5
			c-0.4,15.6-7.3,29.6-18.2,39.7c29.9,8.6,51.9,35.6,51.9,67.4v14.8c39.7-1.4,62.5-12.3,64-13.1l3.2-1.6h0.3V205
			C390,172,363.2,145.2,330.2,145.2z M151,140.4c9.1,0,17.6-2.7,24.8-7.2c2.3-14.9,10.3-28,21.7-36.9c0-0.9,0.1-1.7,0.1-2.6
			c0-25.8-20.9-46.7-46.7-46.7s-46.7,20.9-46.7,46.7C104.3,119.5,125.2,140.4,151,140.4z M194.8,185.3
			c-10.7-10.1-17.4-24.2-17.9-39.9c-1.5-0.1-2.9-0.2-4.4-0.2h-40.7C98.8,145.2,72,172,72,205v48.5l0.1,0.7l3.4,1.1
			c25.5,7.9,48.3,11.5,68.1,12.7v-14.6C143.6,221.2,165.2,194.1,194.8,185.3z"/>
	</g>
</g>
</svg>
