<?xml version="1.0" encoding="utf-8"?>
<!-- Generator: Adobe Illustrator 19.2.0, SVG Export Plug-In . SVG Version: 6.00 Build 0)  -->
<svg version="1.1" id="Capa_1" xmlns="http://www.w3.org/2000/svg" xmlns:xlink="http://www.w3.org/1999/xlink" x="0px" y="0px"
	 width="512px" height="512px" viewBox="0 0 512 512" style="enable-background:new 0 0 512 512;" xml:space="preserve">
<path style="fill:none;stroke:#000000;stroke-width:45;stroke-miterlimit:10;" d="M466.4,336.8L319.9,83
	c-13.2-22.9-37.6-36.9-64-36.9c-26.4,0-50.8,14.1-64,36.9l-149,258.2c-13.2,22.9-13.2,51,0,73.9c13.2,22.9,37.6,36.9,64,36.9H405
	c0.1,0,0.2,0,0.2,0c40.8,0,73.9-33.1,73.9-73.9C479,362.8,474.3,348.5,466.4,336.8z"/>
<path style="fill:#000000;" d="M287.5,358.9v0.7c0,17.5-13.4,30.8-31.5,30.8s-31.5-13.4-31.5-30.8v-0.7"/>
<path style="fill:#000000;" d="M224.5,358.9c0-17.4,13.4-30.8,31.5-30.8s31.5,13.4,31.5,30.8"/>
<path style="fill:#000000;" d="M288.3,151.8l-15.6,136.3c-1,9.8-7.6,15.9-16.7,15.9s-15.6-6.2-16.7-15.9l-15.6-136.4
	c-1-10.5,4.7-18.5,14.5-18.5h35.5C283.5,133.3,289.3,141.3,288.3,151.8z"/>
</svg>
