<?xml version="1.0" encoding="utf-8"?>
<!-- Generator: Adobe Illustrator 25.1.0, SVG Export Plug-In . SVG Version: 6.00 Build 0)  -->
<svg version="1.1" id="Capa_1" xmlns="http://www.w3.org/2000/svg" xmlns:xlink="http://www.w3.org/1999/xlink" x="0px" y="0px"
	 viewBox="0 0 880.7 880.7" style="enable-background:new 0 0 880.7 880.7;" xml:space="preserve">
<style type="text/css">
	.st0{fill:#FFB90B;}
</style>
<g>
	<g>
		<path class="st0" d="M638.5,721.1l-23.4-101.8c-226.9,11.4-283.9-69.9-283.9-69.9s-81.2-57-69.8-283.9l-101.8-23.4
			c-45.2,135.2-86.1,338.8,27,451.9C299.8,807.1,503.3,766.3,638.5,721.1z"/>
		<path class="st0" d="M265.3,214.6l6.1-60.1c1.9-18.8-10.5-35.9-28.9-40c-17.3-3.8-34.9,5.2-41.9,21.4c-7.6,17.4-17.8,41.8-28.6,71
			l92,21.1C264.4,223.7,264.8,219.1,265.3,214.6z"/>
		<path class="st0" d="M744.7,680.2c16.2-7,25.2-24.6,21.4-41.9l0,0c-4-18.4-21.2-30.9-40-28.9l-60.1,6.1c-4.5,0.4-9.1,0.9-13.5,1.3
			l21.1,92.1C703,698,727.4,687.8,744.7,680.2z"/>
	</g>
</g>
</svg>
