<?xml version="1.0" encoding="utf-8"?>
<!-- Generator: Adobe Illustrator 16.0.0, SVG Export Plug-In . SVG Version: 6.00 Build 0)  -->
<!DOCTYPE svg PUBLIC "-//W3C//DTD SVG 1.1//EN" "http://www.w3.org/Graphics/SVG/1.1/DTD/svg11.dtd">
<svg version="1.1" xmlns="http://www.w3.org/2000/svg" xmlns:xlink="http://www.w3.org/1999/xlink" x="0px" y="0px" width="35px"
	 height="35px" viewBox="0 0 35 35" enable-background="new 0 0 35 35" xml:space="preserve">
<g id="Background" display="none">
	<rect x="-525.05" y="-485.077" display="inline" fill="#162438" width="2494" height="1500"/>
	<rect x="-525.05" y="-485.077" display="inline" fill="#162438" width="2494" height="1500"/>
</g>
<g id="background2" display="none">
	<rect x="-525.05" y="-485.077" display="inline" fill="#FFFFFF" width="2494" height="1500"/>
</g>
<g id="Layer_4">
</g>
<g id="Icons">
</g>
<g id="TITLE">
	<g>
		<path fill="#7ED321" d="M32.582,6.392c0,1.405-0.637,2.774-1.91,4.108l-0.198,0.198L19.34,22.426
			c-2.366,2.486-4.381,4.408-6.044,5.765s-2.837,2.036-3.522,2.036c-0.721,0-1.616-0.34-2.685-1.018
			c-1.069-0.679-1.76-1.378-2.072-2.099c-0.264-0.601-0.514-1.874-0.748-3.819c-0.234-1.946-0.352-4.054-0.352-6.324
			c0-1.237,0.517-2.381,1.549-3.432c1.033-1.051,2.174-1.577,3.423-1.577c1.189,0,1.897,1.087,2.126,3.261
			c0.024,0.252,0.042,0.438,0.054,0.559c0.192,1.669,0.415,2.834,0.667,3.495c0.252,0.661,0.594,0.991,1.027,0.991
			c0.18,0,0.516-0.195,1.009-0.585s1.081-0.922,1.766-1.595l11.44-11.332c0.961-0.961,1.82-1.688,2.576-2.18
			c0.757-0.492,1.399-0.739,1.928-0.739c0.396,0,0.679,0.15,0.847,0.451c0.168,0.3,0.252,0.805,0.252,1.513V6.392z"/>
	</g>
</g>
</svg>
