<?xml version="1.0" encoding="utf-8"?>
<!-- Generator: Adobe Illustrator 25.1.0, SVG Export Plug-In . SVG Version: 6.00 Build 0)  -->
<svg version="1.1" id="Calque_1" xmlns="http://www.w3.org/2000/svg" xmlns:xlink="http://www.w3.org/1999/xlink" x="0px" y="0px"
	 viewBox="0 0 320.7 260.2" style="enable-background:new 0 0 320.7 260.2;" xml:space="preserve">
<style type="text/css">
	.st0{fill:#D6D6D6;}
	.st1{fill:none;stroke:#FFFFFF;stroke-width:7;stroke-linecap:round;stroke-miterlimit:10;}
	.st2{fill:#FFB90B;}
</style>
<ellipse class="st0" cx="144.3" cy="236.1" rx="124.5" ry="8.5"/>
<g>
	<line class="st1" x1="85.3" y1="203.8" x2="215.9" y2="156.3"/>
</g>
<path class="st2" d="M125.3,223.8l44.3-53.3c11.2,5.5,23.9,8.3,37,7.1c38-3.5,66.1-37.3,62.7-75.3c-3.5-38-37.1-66.2-75.3-62.7
	S127.9,77,131.4,115c1.1,11.8,5,22.5,11.2,31.8l-45,54.1c-3.2,3.8-4.5,8.7-4.1,13.2s2.6,9,6.5,12.3
	C107.6,232.6,118.9,231.5,125.3,223.8z M196.4,65.4c23.9-2.2,45.1,15.4,47.3,39.3s-15.4,45.1-39.3,47.3
	c-23.9,2.2-45.1-15.4-47.3-39.3S172.7,67.5,196.4,65.4z"/>
</svg>
