<?xml version="1.0" encoding="utf-8"?>
<!-- Generator: Adobe Illustrator 25.1.0, SVG Export Plug-In . SVG Version: 6.00 Build 0)  -->
<svg version="1.1" id="Calque_1" xmlns="http://www.w3.org/2000/svg" xmlns:xlink="http://www.w3.org/1999/xlink" x="0px" y="0px"
	 viewBox="0 0 187.1 252.3" style="enable-background:new 0 0 187.1 252.3;" xml:space="preserve">
<style type="text/css">
	.st0{fill:#FFB90B;}
</style>
<g>
	<path class="st0" d="M54.9,42.7c2.3-2.3,4.3-4.3,6.2-6.2C67,42.4,72.9,48.3,79,54.4c-10.2,14.1-11.8,29.1-3.1,45.3
		c8.6-28,27.1-42.4,56.3-44c-1.6-1.7-3.2-3.3-4.7-5c-0.6-0.7-1.3-1.6-1.3-2.5c-0.1-11-0.1-22,0-32.9c0-0.3,0.1-0.6,0.2-1
		c3,0,5.8,0,8.9,0c0,0.9,0.1,1.8,0.1,2.7c0,8.7,0,17.5,0.1,26.2c0,1.3,0.7,2.6,1.4,3.7c1.8,2.7,3.8,5.3,5.8,7.8
		c0.6,0.7,1.7,1.3,2.5,1.4c4.3,0.1,8.7,0,13,0.1c8.3,0.1,14.2,5.7,14.5,14c0.1,3.1,0.1,6.2,0,9.2c-0.2,6.4-3.5,10.7-9.1,13.3
		c1.9,4.3,4,8.6,5.6,13c4,10.8,4.1,22,2.8,33.2c-3.2,27.7-14.3,51.9-32.7,72.7c-8.1,9.2-17.5,16.8-28.6,22.1
		c-12.7,6.1-25.1,5.2-37.3-1.4c-13.5-7.3-24.3-17.7-33.3-29.9c-16-21.8-25.1-46.2-25.8-73.4c-0.6-23.4,9.4-41.7,27.6-55.9
		c6.3-5,13.4-8.7,20.9-11.4c1.2-0.4,4.5-5.2,4.2-6.3c-0.2-0.6-0.7-1.1-1.2-1.5C62.2,50,58.6,46.4,54.9,42.7z M102.6,125.9
		c0.3-2.9,0.5-5.5,1-8.1c4.2-19.9,21-33.6,41.3-33.7c4.1,0,8.2,0,12.2,0c4.5,0,6.1-1.6,6.1-5.9c0-2.3,0-4.7,0-7c0-4-1.6-5.6-5.6-5.6
		c-8.9,0-17.8,0-26.7,0c-6.4,0-12.6,1-18.4,3.7c-16.4,7.4-25.7,20.1-28.2,38c-0.5,3.3-1.5,7.1-3.6,9.6c-4.3,5.4-9.5,10.2-14.2,15
		c-2.4-2.2-4.6-4.3-7-6.5c4.6-4.5,9.1-8.8,13.7-13.3c-4.8-5.6-8.3-11.6-10.3-18.4c-2-6.8-2.6-13.7-1.7-21.2
		c-2.1,1.1-3.8,1.9-5.5,2.8c-14.5,8.3-25,19.9-30,36.1c-3,9.9-2.5,20.1-1.2,30.2c2,15.2,6.9,29.4,14.5,42.7
		c9.4,16.3,21.4,30.2,38,39.7c11,6.2,21.7,6.2,32.6-0.1c14.1-8,24.9-19.4,33.7-32.7c11.4-17.3,17.9-36.2,19.6-56.9
		c1.1-13.4-1.2-26-8.6-37.4c-1.4-2.1-2.8-3.5-5.5-3.1c-2,0.3-4,0.1-6,0.1c-14,0.6-26.3,10.6-29.7,24.3c-0.7,2.6-0.9,5.3-1.4,8.1
		C109,125.9,106.1,125.9,102.6,125.9z"/>
	<path class="st0" d="M112.1,14.3c0,9.4,0,18.6,0,28.1c-0.7,0-1.2,0.1-1.7,0c-5.1-0.7-10.1-0.2-15.1,1.1c-0.8,0.2-2,0.2-2.4-0.2
		C86.4,37,80,30.6,73.5,24c2.3-2.1,4.5-4,7.1-6.4c1.8,2,4,4.3,6.2,6.6c2.5,2.6,5.1,5,7.5,7.6c1.3,1.4,2.5,2,4.3,1.4
		c1.2-0.4,2.4-0.3,3.9-0.5c0-6.1,0-12.2,0-18.4C105.9,14.3,108.9,14.3,112.1,14.3z"/>
</g>
</svg>
