<?xml version="1.0" encoding="utf-8"?>
<!-- Generator: Adobe Illustrator 23.1.1, SVG Export Plug-In . SVG Version: 6.00 Build 0)  -->
<svg version="1.1" id="Capa_1" xmlns="http://www.w3.org/2000/svg" xmlns:xlink="http://www.w3.org/1999/xlink" x="0px" y="0px"
	 width="475.1px" height="475.1px" viewBox="0 0 475.1 475.1" enable-background="new 0 0 475.1 475.1" xml:space="preserve">
<g>
	<path fill="#FFFFFF" d="M419.7,220.7c-8.9-8.9-19.5-13.3-31.8-13.3h-15v-60.1c0-6.3-1.6-13.2-4.7-20.7c-3.1-7.5-6.9-13.5-11.3-17.9
		l-35.7-35.7c-4.4-4.4-10.3-8.1-17.8-11.3c-7.5-3.1-14.4-4.7-20.7-4.7H124.8c-6.3,0-11.6,2.2-16,6.6c-4.4,4.4-6.6,9.7-6.6,16v127.8
		h-15c-12.4,0-23,4.4-31.8,13.3c-8.8,8.8-13.3,19.5-13.3,31.8v97.7c0,2,0.7,3.8,2.2,5.3c1.5,1.5,3.3,2.2,5.3,2.2h52.6v37.6
		c0,6.3,2.2,11.6,6.6,16c4.4,4.4,9.7,6.6,16,6.6h225.5c6.3,0,11.6-2.2,16-6.6c4.4-4.4,6.6-9.7,6.6-16v-37.6h52.6
		c2,0,3.8-0.7,5.3-2.2c1.5-1.5,2.2-3.2,2.2-5.3v-97.7C433,240.2,428.6,229.6,419.7,220.7z M342.8,387.9H132.3v-60.1h210.5V387.9z
		 M342.8,237.5H132.3V87.2h150.4v37.6c0,6.3,2.2,11.6,6.6,16c4.4,4.4,9.7,6.6,16,6.6h37.6L342.8,237.5L342.8,237.5z M398.5,263.1
		c-3,3-6.5,4.5-10.6,4.5s-7.6-1.5-10.6-4.5c-3-3-4.5-6.5-4.5-10.6s1.5-7.6,4.5-10.6c3-3,6.5-4.5,10.6-4.5c4.1,0,7.6,1.5,10.6,4.5
		c3,3,4.5,6.5,4.5,10.6C402.9,256.6,401.4,260.2,398.5,263.1z"/>
</g>
</svg>
