<?xml version="1.0" encoding="utf-8"?>
<!-- Generator: Adobe Illustrator 23.1.1, SVG Export Plug-In . SVG Version: 6.00 Build 0)  -->
<svg version="1.1" id="Calque_1" xmlns="http://www.w3.org/2000/svg" xmlns:xlink="http://www.w3.org/1999/xlink" x="0px" y="0px"
	 width="877px" height="187px" viewBox="0 0 877 187" enable-background="new 0 0 877 187" xml:space="preserve">
<path fill="#EFEFEF" d="M876.5,187.5l-9-2.1c0,0-5-3-9.9-8.1s-3.9-10-7.9-14.1s-5.9-7-9.9-12.1c-4-5-3.9-8-3.9-8
	s-10.8-28.1-11.7-31.1s-3.9-9-5.9-14c-2-5-6.9-17.1-9.8-19.1c-3-2-12.9-9.1-15.9-9.1c-3,0-6,1-8,0.9s-7-1.1-7-1.1l-5-2l-4-3
	c0,0-4,2-7-0.1c-3-2-17-5.1-20-5.2c-3,0-8,3.9-9,0.9s-5-5-7.9-7.1c-3-2-7-1.1-7-1.1l-5-3l-5-2l-4-1l-5-2l-14-3.1l-3,0l-5-2l-5-2
	l-10-1.1l-7-0.1l-10-1.1l-6-1l-9-0.1c0,0-5-3-9-3.1s-9,0.9-9,0.9l-8-0.1l-5-1l-7-1.1l-12-1.1l-11-1.1l-13-1.1l-15-2.1l-12-2.1
	c0,0-16,0.9-18,0.9c-2,0-1-2-5-2c-4,0-11,0.9-13-0.1c-2-1-2-2-5-3c-3-1-17-0.1-19-0.2s1,2-2,2c-3,0-17-1.1-23-0.2s-25,4.8-25,4.8
	s-15,0.9-23,2.8c-8,1.9-16.1,6.9-21.1,7.8c-5,1-11-0.1-18-0.1c-7-0.1-23-0.2-27-2.2s-11-1.1-13-0.1c-2,1-19-0.2-23-0.2
	s-20,2.8-25,3.8c-5,1-19,2.8-19,2.8l-9,1.9l-5,3l-13-0.1c0,0-14,5.9-19.1,6.8c-5,1-15,2.9-16,2.9c-1,0-14,4.9-18,5.9
	c-4,1-14,0.9-18,1.9s-18,4.9-23.1,6.8s-11,2.9-11,2.9l-7-0.1l-9-0.1L90.4,77l-9.1,7.9l-2,6l-6.1,8l-3,6l-10.1,13.9l-16.3,30.9
	c0,0-2.1,7-2.1,8c0,1-7.1,8.9-7.1,8.9l-8.2,20.9H876.5z"/>
</svg>
