<?xml version="1.0" encoding="utf-8"?>
<!-- Generator: Adobe Illustrator 25.1.0, SVG Export Plug-In . SVG Version: 6.00 Build 0)  -->
<svg version="1.1" id="_x2018_Ë_x201E_Û_xF8FF__x2021__x5F_1_x5F_1_x5F_"
	 xmlns="http://www.w3.org/2000/svg" xmlns:xlink="http://www.w3.org/1999/xlink" x="0px" y="0px" viewBox="0 0 161.2 61.5"
	 style="enable-background:new 0 0 161.2 61.5;" xml:space="preserve">
<style type="text/css">
	.st0{fill:#5D5E60;}
	.st1{fill:#FFB90B;}
</style>
<path class="st0" d="M6.5,25.2H0.7v-2.6h14.5v2.6H9.4v15.7H6.5V25.2z"/>
<path class="st0" d="M25.9,37h-7.4l-1.6,3.9H14L22,22h0.4l8,18.9h-2.9L25.9,37z M22.1,27.9l-2.7,6.5h5.3L22.1,27.9z"/>
<path class="st0" d="M31,31.7c0-5.7,3.7-9.4,9.2-9.4c2.5,0,4.7,0.8,6.3,2.1l-1.2,2.3c-1.3-1.1-3-1.8-5-1.8c-3.8,0-6.2,2.7-6.2,6.8
	s2.4,6.8,6.2,6.8c1.9,0,3.6-0.7,5-1.8l1.1,2.4c-1.6,1.3-3.7,2-6.3,2C34.7,41.2,31,37.4,31,31.7z"/>
<path class="st0" d="M50,22.6h2.9v7.7h8.7v-7.7h2.9v18.3h-2.9v-8.1h-8.7v8.1H50V22.6z"/>
<path class="st0" d="M76,33.7v7.2h-3v-7.2l-6-11.1h3.4l4.1,8.4l4.3-8.4h3.3L76,33.7z"/>
<path class="st1" d="M82.9,31.7c0-5.7,3.7-9.4,9.2-9.4c2.5,0,4.7,0.8,6.3,2.1l-1.2,2.3c-1.3-1.1-3-1.8-5-1.8c-3.8,0-6.2,2.7-6.2,6.8
	s2.4,6.8,6.2,6.8c1.9,0,3.6-0.7,5-1.8l1.1,2.4c-1.6,1.3-3.7,2-6.3,2C86.6,41.2,82.9,37.4,82.9,31.7z"/>
<path class="st1" d="M112,37h-7.4l-1.6,3.9h-2.9l8-18.9h0.4l8,18.9h-2.9L112,37z M108.3,27.9l-2.7,6.5h5.3L108.3,27.9z"/>
<path class="st1" d="M129.4,40.9l-3.7-6.1h-0.4h-3.4v6.1H119V22.6h6.2c3.6,0,6.1,2.4,6.1,6.1c0,2.5-1.1,4.4-3,5.4l4.4,6.8H129.4z
	 M124.6,32.2c2.4,0,3.8-1.3,3.8-3.5s-1.4-3.5-3.9-3.5h-2.6v7H124.6z"/>
<path class="st1" d="M151.1,31.7c0,5.6-3.6,9.2-9,9.2h-6.9V22.6h6.9C147.5,22.6,151.1,26.2,151.1,31.7z M148,31.7
	c0-4.1-2.5-6.8-6-6.8h-4v13.5h4C145.5,38.5,148,35.8,148,31.7z"/>
<path class="st1" d="M153.6,52C153.5,52,153.5,52,153.6,52l-19.7-0.1v-1.7l19.6,0.1c1.4,0,2.6-0.5,3.6-1.5s1.5-2.2,1.5-3.6l0.2-33.3
	c0-2.8-2.3-5.1-5.1-5.1L89.3,6.4l0,0c-2.8,0-5.1,2.3-5.1,5.1v8.4h-1.7v-8.4c0-3.7,3.1-6.8,6.8-6.8l0,0l64.4,0.4
	c3.7,0,6.8,3.1,6.8,6.8l-0.2,33.3c0,1.8-0.7,3.5-2,4.8C157.1,51.3,155.4,52,153.6,52z"/>
<g>
	<g>
		<path class="st1" d="M8.9,47.6l-1.8,6.2H6.9L5,48.6l-2,5.1H2.8L1,47.5h0.7L3,52.4l1.9-5H5l1.9,5l1.3-4.8
			C8.2,47.6,8.9,47.6,8.9,47.6z"/>
		<path class="st1" d="M17.1,50.1v3.6h-0.6v-3.5c0-1.5-0.6-2.2-1.6-2.2c-0.6,0-1.3,0.3-1.9,0.9v4.8h-0.6V43H13v5.3
			c0.7-0.6,1.4-0.9,2.1-0.9C16.3,47.5,17.1,48.4,17.1,50.1z"/>
		<path class="st1" d="M25.6,50.1v3.6H25V53c-0.6,0.5-1.4,0.8-2.1,0.8c-1.4,0-2.3-0.8-2.3-1.9c0-1.1,0.9-1.9,2.3-1.9
			c0.6,0,1.3,0.1,2.1,0.4v-0.3c0-1.5-0.6-2.1-1.6-2.2c-0.7,0-1.4,0.2-2,0.7l-0.2-0.4c0.6-0.5,1.5-0.8,2.4-0.8
			C24.8,47.5,25.6,48.4,25.6,50.1z M25,52.5v-1.6c-0.8-0.3-1.4-0.4-2-0.4c-1.1,0-1.8,0.5-1.8,1.4c0,0.8,0.7,1.4,1.8,1.4
			C23.7,53.2,24.4,53,25,52.5z"/>
		<path class="st1" d="M32.7,53.5c-0.3,0.1-0.6,0.2-0.9,0.2c-1.3,0-2.1-0.9-2.1-2.6v-3h-1.1v-0.3l1.1-0.1v-1.8l0.6-0.2v1.9l2.3-0.1
			V48h-2.3v2.9c0,1.5,0.6,2.2,1.6,2.2c0.2,0,0.5,0,0.7-0.1L32.7,53.5z"/>
		<path class="st1" d="M35.8,46.5l1.4-2.5l0.6,0.3l-1.6,2.4L35.8,46.5z"/>
		<path class="st1" d="M40.4,53.2l0.2-0.5c0.5,0.3,1.1,0.5,1.7,0.5c0.8,0,1.3-0.4,1.3-1c0-0.8-0.6-1.1-1.3-1.4
			c-0.8-0.3-1.6-0.8-1.6-1.8c0-1.1,0.9-1.5,1.9-1.5c0.6,0,1.1,0.1,1.5,0.3l-0.2,0.5C43.5,48.1,43,48,42.6,48c-0.8,0-1.2,0.3-1.2,1
			c0,0.8,0.6,1.1,1.3,1.4c0.7,0.3,1.6,0.7,1.6,1.8c0,1.2-0.9,1.6-1.9,1.6C41.6,53.7,40.9,53.5,40.4,53.2z"/>
		<path class="st1" d="M53,45.7c0-0.3,0.2-0.6,0.6-0.6c0.3,0,0.6,0.3,0.6,0.6s-0.2,0.5-0.6,0.5C53.2,46.3,53,46,53,45.7z M53.2,47.6
			h0.6v6.1h-0.6V47.6z"/>
		<path class="st1" d="M62.9,50.1v3.6h-0.6v-3.5c0-1.5-0.6-2.2-1.6-2.2c-0.6,0-1.3,0.3-1.9,0.9v4.8h-0.6v-6.1h0.6v0.8
			c0.7-0.6,1.4-0.9,2.1-0.9C62.1,47.5,62.9,48.4,62.9,50.1z"/>
		<path class="st1" d="M81.2,50.1v3.6h-0.6v-3.5c0-1.5-0.6-2.2-1.6-2.2c-0.7,0-1.5,0.5-2.1,1c0.1,0.3,0.1,0.7,0.1,1.1v3.6h-0.6v-3.5
			c0-1.5-0.6-2.2-1.6-2.2c-0.6,0-1.3,0.3-1.9,0.9v4.8h-0.6v-6.1h0.6v0.8c0.7-0.6,1.4-0.9,2.1-0.9c0.9,0,1.5,0.4,1.8,1.1
			c0.7-0.6,1.5-1.1,2.4-1.1C80.4,47.5,81.2,48.4,81.2,50.1z"/>
		<path class="st1" d="M86.8,53.2l-2.6-5.6h0.7l2.2,4.9l2.2-4.9H90l-4.2,9.2h-0.7L86.8,53.2z"/>
		<path class="st1" d="M104,50.6c0,1.9-1.2,3.2-3,3.2c-0.7,0-1.5-0.3-2-0.7v0.6h-0.6V43H99v5.1c0.6-0.4,1.3-0.7,2-0.7
			C102.8,47.5,104,48.7,104,50.6z M103.4,50.6c0-1.6-0.9-2.6-2.4-2.6c-0.7,0-1.5,0.3-2,0.8v3.5c0.5,0.5,1.3,0.9,2,0.9
			C102.4,53.2,103.4,52.2,103.4,50.6z"/>
		<path class="st1" d="M107.2,50.6c0-1.9,1.2-3.1,3-3.1s3,1.2,3,3.1c0,1.9-1.2,3.2-3,3.2C108.4,53.7,107.2,52.5,107.2,50.6z
			 M112.6,50.6c0-1.6-1-2.6-2.4-2.6s-2.4,1-2.4,2.6s1,2.6,2.4,2.6C111.6,53.2,112.6,52.2,112.6,50.6z"/>
		<path class="st1" d="M122,43v10.6h-0.6V53c-0.5,0.4-1.2,0.7-2,0.7c-1.8,0-3-1.2-3-3.2c0-1.9,1.2-3.1,3-3.1c0.7,0,1.4,0.3,2,0.7V43
			H122z M121.3,52.4v-3.6c-0.5-0.5-1.2-0.8-2-0.8c-1.4,0-2.4,1-2.4,2.6s1,2.6,2.4,2.6C120.1,53.2,120.8,52.9,121.3,52.4z"/>
		<path class="st1" d="M127.9,53.2l-2.6-5.6h0.7l2.2,4.9l2.2-4.9h0.7l-4.2,9.2h-0.7L127.9,53.2z"/>
	</g>
</g>
</svg>
